<svg width="17" height="19" viewBox="0 0 17 19" fill="none" xmlns="http://www.w3.org/2000/svg">
<g clip-path="url(#clip0_1_41)">
<path d="M11.6407 14.2229C12.0676 13.7967 12.7585 13.7978 13.184 14.2254C13.6095 14.653 13.6084 15.3451 13.1815 15.7714L11.2861 17.6641C9.53744 19.4102 6.68595 19.4355 4.90779 17.7228C4.89751 17.713 4.10574 16.9366 1.49374 14.3753C-0.243958 12.6715 -0.417076 9.94507 1.21814 8.19425L4.267 4.92969C5.88992 3.19186 8.88157 3.00191 10.7371 4.50251L13.5062 6.74196C13.9752 7.12121 14.0484 7.80947 13.6698 8.27923C13.2912 8.749 12.6042 8.82236 12.1353 8.44311L9.36619 6.20368C8.39575 5.4189 6.69818 5.52668 5.86081 6.42334L2.81191 9.68794C2.01584 10.5403 2.10303 11.9134 3.02043 12.8129C4.93847 14.6937 6.41668 16.1431 6.4184 16.1448C7.34286 17.0352 8.83764 17.0219 9.74531 16.1155L11.6407 14.2229Z" fill="#FFA116"/>
<path fill-rule="evenodd" clip-rule="evenodd" d="M7.03628 12.3289C6.4336 12.3289 5.94501 11.8395 5.94501 11.2357C5.94501 10.632 6.4336 10.1425 7.03628 10.1425H15.0844C15.687 10.1425 16.1756 10.632 16.1756 11.2357C16.1756 11.8395 15.687 12.3289 15.0844 12.3289H7.03628Z" fill="#B3B3B3"/>
<path fill-rule="evenodd" clip-rule="evenodd" d="M8.54347 0.350657C8.95522 -0.090223 9.64579 -0.113258 10.0859 0.299207C10.526 0.711673 10.549 1.40345 10.1373 1.84432L2.81194 9.68797C2.01586 10.5402 2.10303 11.9133 3.02038 12.8129L6.40332 16.1302C6.834 16.5525 6.84138 17.2447 6.41978 17.676C5.99819 18.1076 5.30727 18.1149 4.87659 17.6926L1.49364 14.3753C-0.24396 12.6713 -0.417076 9.94493 1.21822 8.19423L8.54347 0.350657Z" fill="white"/>
</g>
<defs>
<clipPath id="clip0_1_41">
<rect width="16.2613" height="19" fill="white" transform="translate(0 0.00431824)"/>
</clipPath>
</defs>
</svg>
